HIERARCHY
ROOT Hips
{
	OFFSET 0.000000 87.230942 0.000000
	CHANNELS 6 Xposition Yposition Zposition Xrotation Yrotation Zrotation
	JOINT Pelvis
	{
		OFFSET 0.000000 0.000000 0.000000
		CHANNELS 3 Xrotation Yrotation Zrotation
		JOINT LeftUpLeg
		{
			OFFSET 12.017000 -9.376404 -2.439400
			CHANNELS 3 Xrotation Yrotation Zrotation
			JOINT LeftLeg
			{
				OFFSET -0.007312 -32.846973 2.110600
				CHANNELS 3 Xrotation Yrotation Zrotation
				JOINT LeftFoot
				{
					OFFSET 0.007312 -32.065170 -0.570400
					CHANNELS 3 Xrotation Yrotation Zrotation
					JOINT LeftToeBase
					{
						OFFSET 0.728300 -11.045900 13.180700
						CHANNELS 3 Xrotation Yrotation Zrotation
						End Site
						{
							OFFSET 0.000000 17.212589 0.000000
						}
					}
				}
				JOINT LeftPantLeg
				{
					OFFSET 0.002788 -16.709013 -3.143600
					CHANNELS 3 Xrotation Yrotation Zrotation
					End Site
					{
						OFFSET -0.605125 24.528742 0.000000
					}
				}
			}
			JOINT Left_Butt
			{
				OFFSET -6.630234 1.326584 -3.183700
				CHANNELS 3 Xrotation Yrotation Zrotation
				End Site
				{
					OFFSET -0.498041 20.188049 0.000000
				}
			}
		}
		JOINT RightUpLeg
		{
			OFFSET -11.717000 -9.376404 -2.439400
			CHANNELS 3 Xrotation Yrotation Zrotation
			JOINT RightLeg
			{
				OFFSET -0.003241 -32.846912 2.110600
				CHANNELS 3 Xrotation Yrotation Zrotation
				JOINT RightFoot
				{
					OFFSET 0.003241 -32.065136 -0.570500
					CHANNELS 3 Xrotation Yrotation Zrotation
					JOINT RightToeBase
					{
						OFFSET -0.728300 -11.045901 13.180700
						CHANNELS 3 Xrotation Yrotation Zrotation
						End Site
						{
							OFFSET 0.000000 17.212593 0.000000
						}
					}
				}
				JOINT RightPantLeg
				{
					OFFSET 0.008142 -16.708982 -3.143700
					CHANNELS 3 Xrotation Yrotation Zrotation
					End Site
					{
						OFFSET 0.605088 24.528715 0.000000
					}
				}
			}
			JOINT Right_Butt
			{
				OFFSET 6.630732 1.326584 -3.183700
				CHANNELS 3 Xrotation Yrotation Zrotation
				End Site
				{
					OFFSET 0.498015 20.188240 0.000000
				}
			}
		}
	}
	JOINT Spine
	{
		OFFSET -0.062400 7.848404 3.918300
		CHANNELS 3 Xrotation Yrotation Zrotation
		JOINT Spine1
		{
			OFFSET -0.072800 11.422302 0.713400
			CHANNELS 3 Xrotation Yrotation Zrotation
			JOINT Spine2
			{
				OFFSET -0.083200 13.054001 -1.931600
				CHANNELS 3 Xrotation Yrotation Zrotation
				JOINT Neck
				{
					OFFSET -0.092200 14.121796 -5.138800
					CHANNELS 3 Xrotation Yrotation Zrotation
					JOINT Head
					{
						OFFSET 0.000200 10.447403 -0.842000
						CHANNELS 3 Xrotation Yrotation Zrotation
						JOINT Visor
						{
							OFFSET 0.457100 25.671204 16.550400
							CHANNELS 3 Xrotation Yrotation Zrotation
							End Site
							{
								OFFSET 0.000000 26.061493 0.000000
							}
						}
						JOINT HairMidA
						{
							OFFSET 0.459400 31.585403 8.437400
							CHANNELS 3 Xrotation Yrotation Zrotation
							End Site
							{
								OFFSET 0.000000 26.061493 0.000000
							}
						}
						JOINT HairMidB
						{
							OFFSET 0.464000 33.309204 -8.389700
							CHANNELS 3 Xrotation Yrotation Zrotation
							End Site
							{
								OFFSET 0.000000 26.061493 0.000000
							}
						}
						JOINT HairMidC
						{
							OFFSET 0.466600 27.991196 -17.375099
							CHANNELS 3 Xrotation Yrotation Zrotation
							End Site
							{
								OFFSET 0.000000 26.061493 0.000000
							}
						}
						JOINT HairMidD
						{
							OFFSET 0.467700 17.888092 -21.169500
							CHANNELS 3 Xrotation Yrotation Zrotation
							End Site
							{
								OFFSET 0.000000 26.061493 0.000000
							}
						}
						JOINT HairMidE
						{
							OFFSET 5.325700 3.514603 -14.369699
							CHANNELS 3 Xrotation Yrotation Zrotation
							End Site
							{
								OFFSET 0.000000 26.061493 0.000000
							}
						}
						JOINT HairMidF
						{
							OFFSET -4.394100 3.514603 -14.372400
							CHANNELS 3 Xrotation Yrotation Zrotation
							End Site
							{
								OFFSET 0.000000 26.061493 0.000000
							}
						}
						JOINT HairLeftA
						{
							OFFSET 15.319900 25.746506 2.623300
							CHANNELS 3 Xrotation Yrotation Zrotation
							End Site
							{
								OFFSET 0.000000 26.061493 0.000000
							}
						}
						JOINT HairLeftB
						{
							OFFSET 12.619500 29.289398 -8.731499
							CHANNELS 3 Xrotation Yrotation Zrotation
							End Site
							{
								OFFSET 0.000000 26.061493 0.000000
							}
						}
						JOINT HairLeftC
						{
							OFFSET 15.714800 15.959900 2.909800
							CHANNELS 3 Xrotation Yrotation Zrotation
							End Site
							{
								OFFSET 0.000000 26.061493 0.000000
							}
						}
						JOINT HairLeftD
						{
							OFFSET 16.101700 18.437408 -7.553200
							CHANNELS 3 Xrotation Yrotation Zrotation
							End Site
							{
								OFFSET 0.000000 26.061493 0.000000
							}
						}
						JOINT HairLeftE
						{
							OFFSET 9.731900 17.915009 -18.316799
							CHANNELS 3 Xrotation Yrotation Zrotation
							End Site
							{
								OFFSET 0.000000 26.061493 0.000000
							}
						}
						JOINT HairLeftF
						{
							OFFSET 11.204300 4.953598 -9.668100
							CHANNELS 3 Xrotation Yrotation Zrotation
							End Site
							{
								OFFSET 0.000000 26.061493 0.000000
							}
						}
						JOINT HairRightA
						{
							OFFSET -14.397900 25.746307 2.615100
							CHANNELS 3 Xrotation Yrotation Zrotation
							End Site
							{
								OFFSET 0.000000 26.061493 0.000000
							}
						}
						JOINT HairRightB
						{
							OFFSET -11.691200 29.289200 -8.738199
							CHANNELS 3 Xrotation Yrotation Zrotation
							End Site
							{
								OFFSET 0.000000 26.061493 0.000000
							}
						}
						JOINT HairRightC
						{
							OFFSET -14.792900 15.959702 2.901400
							CHANNELS 3 Xrotation Yrotation Zrotation
							End Site
							{
								OFFSET 0.000000 26.061493 0.000000
							}
						}
						JOINT HairRightD
						{
							OFFSET -15.174000 18.437195 -7.561900
							CHANNELS 3 Xrotation Yrotation Zrotation
							End Site
							{
								OFFSET 0.000000 26.061493 0.000000
							}
						}
						JOINT HairRightE
						{
							OFFSET -8.798200 17.914902 -18.322001
							CHANNELS 3 Xrotation Yrotation Zrotation
							End Site
							{
								OFFSET 0.000000 26.061493 0.000000
							}
						}
						JOINT HairRightF
						{
							OFFSET -10.275200 4.953506 -9.674099
							CHANNELS 3 Xrotation Yrotation Zrotation
							End Site
							{
								OFFSET 0.000000 26.061493 0.000000
							}
						}
					}
				}
				JOINT LeftShoulder
				{
					OFFSET 5.133500 7.341202 -1.867600
					CHANNELS 3 Xrotation Yrotation Zrotation
					JOINT LeftArm
					{
						OFFSET 8.072663 0.936867 -2.176600
						CHANNELS 3 Xrotation Yrotation Zrotation
						JOINT LeftForeArm
						{
							OFFSET 31.271999 0.000000 0.000000
							CHANNELS 3 Xrotation Yrotation Zrotation
							JOINT LeftHand
							{
								OFFSET 31.771030 0.000000 0.000000
								CHANNELS 3 Xrotation Yrotation Zrotation
								JOINT LeftHandThumb1
								{
									OFFSET 2.886520 -2.557846 4.416640
									CHANNELS 3 Xrotation Yrotation Zrotation
									JOINT LeftHandThumb2
									{
										OFFSET 2.371025 -1.368912 1.368911
										CHANNELS 3 Xrotation Yrotation Zrotation
										JOINT LeftHandThumb3
										{
											OFFSET 2.243378 -1.295212 1.295213
											CHANNELS 3 Xrotation Yrotation Zrotation
											End Site
											{
												OFFSET -0.332611 2.876945 0.020015
											}
										}
									}
								}
								JOINT LeftHandIndex1
								{
									OFFSET 8.568985 -0.641945 3.119977
									CHANNELS 3 Xrotation Yrotation Zrotation
									JOINT LeftHandIndex2
									{
										OFFSET 3.348503 0.000000 0.000000
										CHANNELS 3 Xrotation Yrotation Zrotation
										JOINT LeftHandIndex3
										{
											OFFSET 3.314552 0.000000 0.000000
											CHANNELS 3 Xrotation Yrotation Zrotation
											End Site
											{
												OFFSET -1.032898 3.075485 0.678796
											}
										}
									}
								}
								JOINT LeftHandMiddle1
								{
									OFFSET 8.124603 0.000000 0.000000
									CHANNELS 3 Xrotation Yrotation Zrotation
									JOINT LeftHandMiddle2
									{
										OFFSET 4.166275 0.000000 0.000000
										CHANNELS 3 Xrotation Yrotation Zrotation
										JOINT LeftHandMiddle3
										{
											OFFSET 3.018135 0.000000 0.000000
											CHANNELS 3 Xrotation Yrotation Zrotation
											End Site
											{
												OFFSET -1.032700 2.767982 0.617226
											}
										}
									}
								}
								JOINT LeftHandRing1
								{
									OFFSET 8.571686 -0.031357 -2.884048
									CHANNELS 3 Xrotation Yrotation Zrotation
									JOINT LeftHandRing2
									{
										OFFSET 3.671181 0.000000 0.000000
										CHANNELS 3 Xrotation Yrotation Zrotation
										JOINT LeftHandRing3
										{
											OFFSET 2.728851 0.000000 0.000000
											CHANNELS 3 Xrotation Yrotation Zrotation
											End Site
											{
												OFFSET -0.815796 2.539223 0.577389
											}
										}
									}
								}
								JOINT LeftHandPinky1
								{
									OFFSET 7.854515 -0.675232 -5.213020
									CHANNELS 3 Xrotation Yrotation Zrotation
									JOINT LeftHandPinky2
									{
										OFFSET 3.068596 0.000000 0.000000
										CHANNELS 3 Xrotation Yrotation Zrotation
										JOINT LeftHandPinky3
										{
											OFFSET 2.396042 0.000000 0.000000
											CHANNELS 3 Xrotation Yrotation Zrotation
											End Site
											{
												OFFSET -0.524597 2.267998 0.567429
											}
										}
									}
								}
							}
							JOINT LeftSleeve
							{
								OFFSET 19.684509 -0.200119 0.476146
								CHANNELS 3 Xrotation Yrotation Zrotation
								End Site
								{
									OFFSET -0.031017 25.731133 -0.002868
								}
							}
						}
					}
				}
				JOINT RightShoulder
				{
					OFFSET -4.395900 7.341202 -1.870200
					CHANNELS 3 Xrotation Yrotation Zrotation
					JOINT RightArm
					{
						OFFSET -8.071453 0.936867 -2.181100
						CHANNELS 3 Xrotation Yrotation Zrotation
						JOINT RightForeArm
						{
							OFFSET -31.272011 0.000000 0.000000
							CHANNELS 3 Xrotation Yrotation Zrotation
							JOINT RightHand
							{
								OFFSET -31.771019 0.000000 0.000000
								CHANNELS 3 Xrotation Yrotation Zrotation
								JOINT RightHandThumb1
								{
									OFFSET -2.886520 -2.557808 4.416626
									CHANNELS 3 Xrotation Yrotation Zrotation
									JOINT RightHandThumb2
									{
										OFFSET -2.371056 -1.368927 1.368928
										CHANNELS 3 Xrotation Yrotation Zrotation
										JOINT RightHandThumb3
										{
											OFFSET -2.243362 -1.295204 1.295206
											CHANNELS 3 Xrotation Yrotation Zrotation
											End Site
											{
												OFFSET 0.332642 2.876938 0.020047
											}
										}
									}
								}
								JOINT RightHandIndex1
								{
									OFFSET -8.568993 -0.641953 3.120017
									CHANNELS 3 Xrotation Yrotation Zrotation
									JOINT RightHandIndex2
									{
										OFFSET -3.348518 0.000000 0.000000
										CHANNELS 3 Xrotation Yrotation Zrotation
										JOINT RightHandIndex3
										{
											OFFSET -3.314552 0.000000 0.000000
											CHANNELS 3 Xrotation Yrotation Zrotation
											End Site
											{
												OFFSET 1.032898 3.075478 0.678804
											}
										}
									}
								}
								JOINT RightHandMiddle1
								{
									OFFSET -8.124588 0.000000 0.000000
									CHANNELS 3 Xrotation Yrotation Zrotation
									JOINT RightHandMiddle2
									{
										OFFSET -4.166275 0.000000 0.000000
										CHANNELS 3 Xrotation Yrotation Zrotation
										JOINT RightHandMiddle3
										{
											OFFSET -3.018097 0.000000 0.000000
											CHANNELS 3 Xrotation Yrotation Zrotation
											End Site
											{
												OFFSET 1.032700 2.767937 0.617197
											}
										}
									}
								}
								JOINT RightHandRing1
								{
									OFFSET -8.571747 -0.031349 -2.884061
									CHANNELS 3 Xrotation Yrotation Zrotation
									JOINT RightHandRing2
									{
										OFFSET -3.671204 0.000000 0.000000
										CHANNELS 3 Xrotation Yrotation Zrotation
										JOINT RightHandRing3
										{
											OFFSET -2.728874 0.000000 0.000000
											CHANNELS 3 Xrotation Yrotation Zrotation
											End Site
											{
												OFFSET 0.815804 2.539261 0.577413
											}
										}
									}
								}
								JOINT RightHandPinky1
								{
									OFFSET -7.854561 -0.675247 -5.212970
									CHANNELS 3 Xrotation Yrotation Zrotation
									JOINT RightHandPinky2
									{
										OFFSET -3.068550 0.000000 0.000000
										CHANNELS 3 Xrotation Yrotation Zrotation
										JOINT RightHandPinky3
										{
											OFFSET -2.395981 0.000000 0.000000
											CHANNELS 3 Xrotation Yrotation Zrotation
											End Site
											{
												OFFSET 0.524605 2.267952 0.567413
											}
										}
									}
								}
							}
							JOINT RightSleeve
							{
								OFFSET -19.684753 -0.200165 0.476065
								CHANNELS 3 Xrotation Yrotation Zrotation
								End Site
								{
									OFFSET 0.031342 25.731255 -0.002917
								}
							}
						}
					}
				}
				JOINT Hood
				{
					OFFSET 0.369700 14.447800 -5.317800
					CHANNELS 3 Xrotation Yrotation Zrotation
					JOINT Hood1
					{
						OFFSET 0.001700 -5.553802 -5.895100
						CHANNELS 3 Xrotation Yrotation Zrotation
						JOINT Hood2
						{
							OFFSET -0.000200 -8.380501 0.763600
							CHANNELS 3 Xrotation Yrotation Zrotation
							End Site
							{
								OFFSET 0.000000 8.415215 0.000000
							}
						}
					}
				}
				JOINT Left_Breast
				{
					OFFSET 5.682500 3.120102 3.188800
					CHANNELS 3 Xrotation Yrotation Zrotation
					End Site
					{
						OFFSET 0.000000 10.528564 0.000000
					}
				}
				JOINT Right_Breast
				{
					OFFSET -4.947600 3.120102 3.185900
					CHANNELS 3 Xrotation Yrotation Zrotation
					End Site
					{
						OFFSET 0.000000 10.528564 0.000000
					}
				}
				JOINT Whistle
				{
					OFFSET 0.368200 11.471298 0.095400
					CHANNELS 3 Xrotation Yrotation Zrotation
					JOINT Whistle1
					{
						OFFSET -0.002000 -6.349899 7.479800
						CHANNELS 3 Xrotation Yrotation Zrotation
						JOINT Whistle2
						{
							OFFSET -0.001300 -8.217598 4.717600
							CHANNELS 3 Xrotation Yrotation Zrotation
							End Site
							{
								OFFSET 0.000000 9.475479 0.000000
							}
						}
					}
				}
			}
		}
		JOINT Belly
		{
			OFFSET 0.212400 1.593002 3.163700
			CHANNELS 3 Xrotation Yrotation Zrotation
			End Site
			{
				OFFSET 0.000000 7.496635 0.000000
			}
		}
	}
	JOINT FitGrandmaFacialAnim_Joint
	{
		OFFSET 1.150000 -86.211197 -1.220100
		CHANNELS 3 Xrotation Yrotation Zrotation
		End Site
		{
			OFFSET 0.000000 31.666618 0.000000
		}
	}
}
MOTION
Frames: 4
Frame Time: 0.016667
-4.502104 82.146370 2.338365 2.464745 28.019393 0.630197 0.000000 0.000001 0.000000 -28.984707 -23.031176 0.758832 29.236560 15.231057 -7.899807 -1.500743 -2.979904 -5.642102 -0.000000 0.000001 0.000000 0.000000 0.000000 0.000000 -0.000002 -0.000000 0.000001 4.543736 -27.738235 -3.709402 28.252760 -8.624687 7.449096 -32.051834 -10.573205 1.179315 0.000000 -0.000001 0.000000 -0.000000 -0.000000 0.000001 0.000000 0.000000 0.000001 3.896560 4.626716 -1.612180 0.662381 3.033934 0.848257 0.672735 3.142738 0.838937 -2.710827 10.151294 -6.043546 -8.274089 5.419474 8.279210 0.000000 0.000001 0.000000 0.000000 0.000001 0.000000 0.000000 0.000001 0.000000 0.000000 0.000001 0.000000 0.000000 0.000001 0.000000 0.000000 0.000001 0.000000 0.000000 0.000001 0.000000 0.000000 0.000001 0.000000 0.000000 0.000001 0.000000 0.000000 0.000001 0.000000 0.000000 0.000001 0.000000 0.000000 0.000001 0.000000 0.000000 0.000001 0.000000 0.000000 0.000001 0.000000 0.000000 0.000001 0.000000 0.000000 0.000001 0.000000 0.000000 0.000001 0.000000 0.000000 0.000001 0.000000 0.000000 0.000001 0.000000 -0.170426 1.694766 -1.674852 -70.359172 1.043904 -26.985326 2.443047 -70.793265 3.754348 -29.776179 28.488668 8.482194 17.563620 -5.694018 -12.929225 10.852321 26.148382 8.654096 -0.000002 -0.000000 -0.000001 13.978258 1.203556 -55.006034 0.372669 1.163836 -65.441866 0.000001 0.000002 -0.000003 7.502562 1.175423 -63.755287 1.809500 1.478238 -64.569863 -0.000001 0.000000 -0.000003 8.574348 2.179115 -75.148992 -0.208034 1.014738 -57.856784 0.000002 -0.000000 -0.000002 10.030084 13.637077 -84.750251 0.878813 0.065133 -64.595496 -0.000002 0.000000 0.000000 -0.000002 -0.000002 0.000001 4.020287 15.450597 6.652472 13.125183 -8.190056 63.320812 15.659593 40.753526 -6.335588 0.612800 5.014359 4.113607 15.788508 -2.734484 -17.205885 -2.198353 -31.113554 7.361195 -0.000000 -0.000000 0.000001 2.074290 -2.892228 8.063609 -2.121944 -2.465273 18.435473 -0.000001 0.000001 -0.000000 -2.068506 -5.551581 13.796157 0.296932 -5.078008 27.073167 -0.000003 0.000001 -0.000003 -2.790448 -9.236753 13.386726 4.022966 -4.011820 34.251763 0.000001 -0.000001 -0.000001 -5.652120 -13.452104 23.029974 10.777263 -2.332136 36.218458 -0.000002 -0.000002 0.000004 0.000001 0.000000 0.000001 0.000000 -0.000002 0.000000 0.000000 -0.000002 0.000000 0.000000 -0.000002 0.000000 0.000000 -0.000002 0.000000 0.000000 -0.000002 0.000000 0.000000 -0.000002 -0.000000 -0.000000 -0.000002 0.000000 -0.000000 -0.000002 0.000000 0.000000 -0.000002 0.000000 0.000000 0.000001 0.000000 
-4.551140 82.177338 2.288209 2.694691 26.627197 0.447846 0.000000 -0.000000 -0.000000 -28.846402 -22.310350 1.387520 29.510526 15.493900 -7.916357 -1.801828 -2.755382 -5.777713 0.000000 0.000002 -0.000000 0.000000 -0.000000 0.000001 -0.000002 -0.000001 0.000001 3.821925 -26.722827 -3.853808 28.472011 -8.367759 7.298642 -31.903383 -10.447300 1.139865 -0.000000 0.000000 -0.000000 0.000001 -0.000000 0.000001 0.000000 -0.000000 -0.000001 3.962884 4.545829 -1.622867 0.707251 2.981746 0.854121 0.717241 3.091658 0.846011 -3.079328 8.772027 -5.694022 -7.482104 4.208283 8.375152 -0.000000 0.000001 -0.000000 -0.000000 0.000001 -0.000000 -0.000000 0.000001 -0.000000 -0.000000 0.000001 -0.000000 -0.000000 0.000001 -0.000000 -0.000000 0.000001 -0.000000 -0.000000 0.000001 -0.000000 -0.000000 0.000001 -0.000000 -0.000000 0.000001 -0.000000 -0.000000 0.000001 -0.000000 -0.000000 0.000001 -0.000000 -0.000000 0.000001 -0.000000 -0.000000 0.000001 -0.000000 -0.000000 0.000001 -0.000000 -0.000000 0.000001 -0.000000 -0.000000 0.000001 -0.000000 -0.000000 0.000001 -0.000000 -0.000000 0.000001 -0.000000 -0.000000 0.000001 -0.000000 -0.162805 1.312154 -1.801275 -70.388904 1.155124 -27.050797 2.651009 -71.946426 3.781620 -30.374954 28.694612 9.100168 17.563623 -5.694019 -12.929223 10.852318 26.148380 8.654094 0.000000 -0.000000 0.000000 13.978260 1.203562 -55.006041 0.372672 1.163837 -65.441859 -0.000001 -0.000000 0.000001 7.502558 1.175429 -63.755281 1.809497 1.478238 -64.569863 -0.000000 0.000000 -0.000003 8.574346 2.179111 -75.148999 -0.208034 1.014736 -57.856784 0.000001 0.000000 0.000000 10.030083 13.637076 -84.750251 0.878815 0.065134 -64.595496 0.000002 -0.000001 -0.000002 -0.000002 0.000002 -0.000003 4.048800 15.426131 6.521219 12.805607 -8.144387 63.265761 15.745731 41.230840 -6.421034 0.382667 5.166903 4.027967 15.788508 -2.734483 -17.205890 -2.198349 -31.113550 7.361201 -0.000000 0.000001 0.000001 2.074632 -2.893178 8.030019 -2.121184 -2.465809 18.407488 -0.000002 0.000001 0.000002 -2.069259 -5.550812 13.763148 0.297744 -5.078516 27.045824 -0.000001 0.000001 -0.000003 -2.792297 -9.234409 13.352247 4.022589 -4.012731 34.223209 0.000003 0.000001 -0.000004 -5.659315 -13.435657 23.012564 10.777863 -2.332968 36.195443 0.000001 0.000003 -0.000003 0.000002 0.000001 0.000001 0.000001 -0.000001 0.000000 0.000001 -0.000001 0.000000 0.000001 -0.000001 0.000000 0.000001 -0.000001 0.000000 0.000001 -0.000001 0.000000 0.000000 -0.000001 -0.000000 -0.000000 -0.000001 -0.000000 -0.000000 -0.000001 -0.000000 -0.000000 -0.000001 0.000000 0.000000 -0.000000 -0.000000 
-4.594583 82.205475 2.231693 2.952735 25.199908 0.264295 -0.000000 0.000001 -0.000000 -28.747146 -21.612172 2.010684 29.799610 15.798193 -7.949299 -2.109536 -2.503290 -5.928034 0.000000 0.000002 -0.000000 0.000000 -0.000001 0.000001 -0.000002 0.000000 0.000000 3.058347 -25.645021 -4.034009 28.703624 -8.108095 7.229508 -31.743830 -10.303080 1.094647 -0.000000 -0.000001 -0.000000 -0.000000 -0.000000 0.000001 0.000000 -0.000000 -0.000001 4.024905 4.479059 -1.614240 0.745713 2.934836 0.846919 0.756890 3.044792 0.839889 -3.457279 7.577845 -5.438823 -6.770385 3.128969 8.503119 -0.000000 -0.000002 0.000001 -0.000000 -0.000002 0.000001 -0.000000 -0.000002 0.000001 -0.000000 -0.000002 0.000001 -0.000000 -0.000002 0.000001 -0.000000 -0.000002 0.000001 -0.000000 -0.000002 0.000001 -0.000000 -0.000002 0.000001 -0.000000 -0.000002 0.000001 -0.000000 -0.000002 0.000001 -0.000000 -0.000002 0.000001 -0.000000 -0.000002 0.000001 -0.000000 -0.000002 0.000001 -0.000000 -0.000002 0.000001 -0.000000 -0.000002 0.000001 -0.000000 -0.000002 0.000001 -0.000000 -0.000002 0.000001 -0.000000 -0.000002 0.000001 -0.000000 -0.000002 0.000001 -0.084036 0.806786 -1.884201 -70.540288 1.291853 -27.179151 2.895077 -73.071051 3.786776 -31.235613 28.851412 9.761300 17.563625 -5.694018 -12.929228 10.852322 26.148379 8.654091 -0.000003 0.000002 -0.000000 13.978261 1.203558 -55.006034 0.372671 1.163836 -65.441866 0.000001 -0.000001 -0.000003 7.502559 1.175428 -63.755281 1.809499 1.478237 -64.569863 -0.000001 0.000000 -0.000003 8.574350 2.179114 -75.148999 -0.208025 1.014738 -57.856784 0.000001 0.000001 -0.000001 10.030088 13.637077 -84.750251 0.878815 0.065132 -64.595490 0.000001 -0.000002 0.000002 0.000002 -0.000003 0.000002 4.018021 15.343494 6.386900 12.582817 -8.065748 63.241849 15.851395 41.731974 -6.506777 0.197820 5.306181 3.964810 15.788510 -2.734486 -17.205887 -2.198347 -31.113550 7.361198 0.000000 0.000001 0.000001 2.074935 -2.893533 7.958545 -2.120560 -2.465807 18.342297 0.000001 -0.000001 0.000003 -2.070266 -5.549538 13.692532 0.297857 -5.078842 26.981090 -0.000001 -0.000003 -0.000002 -2.794179 -9.231174 13.280185 4.022284 -4.012943 34.157260 -0.000000 -0.000003 -0.000002 -5.666640 -13.418907 22.958426 10.777972 -2.333350 36.135751 -0.000000 -0.000000 -0.000000 -0.000002 0.000001 -0.000000 0.000000 -0.000004 0.000001 0.000000 -0.000004 0.000001 0.000000 -0.000004 0.000001 0.000000 -0.000004 0.000001 0.000000 -0.000004 0.000001 0.000000 -0.000004 0.000001 0.000000 0.000003 0.000000 0.000000 0.000003 0.000000 0.000001 0.000002 -0.000000 -0.000000 0.000001 -0.000000 
-4.635179 82.230827 2.169601 3.240344 23.734441 0.079402 -0.000000 0.000001 0.000000 -28.687355 -20.963836 2.633712 30.094695 16.134358 -8.005596 -2.403426 -2.232929 -6.072576 0.000000 -0.000001 0.000000 0.000000 -0.000004 0.000000 -0.000003 0.000000 0.000000 2.233886 -24.578099 -4.223349 28.978164 -7.869166 7.165977 -31.578939 -10.166434 1.037159 -0.000000 -0.000000 0.000000 0.000000 0.000001 -0.000000 0.000000 -0.000000 -0.000000 4.074721 4.375137 -1.639277 0.790329 2.868910 0.853545 0.800377 2.980541 0.848366 -3.958432 6.548236 -5.148044 -6.079051 2.232478 8.598652 -0.000000 -0.000004 -0.000000 -0.000000 -0.000004 -0.000000 -0.000000 -0.000004 -0.000000 -0.000000 -0.000004 -0.000000 -0.000000 -0.000004 -0.000000 -0.000000 -0.000004 -0.000000 -0.000000 -0.000004 -0.000000 -0.000000 -0.000004 -0.000000 -0.000000 -0.000004 -0.000000 -0.000000 -0.000004 -0.000000 -0.000000 -0.000004 -0.000000 -0.000000 -0.000004 -0.000000 -0.000000 -0.000004 -0.000000 -0.000000 -0.000004 -0.000000 -0.000000 -0.000004 -0.000000 -0.000000 -0.000004 -0.000000 -0.000000 -0.000004 -0.000000 -0.000000 -0.000004 -0.000000 -0.000000 -0.000004 -0.000000 -0.018819 0.448298 -1.891518 -70.716534 1.401112 -27.633591 3.155376 -74.131076 3.832573 -32.165058 28.983385 10.355857 17.563623 -5.694015 -12.929223 10.852325 26.148385 8.654094 -0.000006 0.000002 -0.000001 13.978257 1.203558 -55.006034 0.372676 1.163835 -65.441866 0.000005 0.000002 -0.000003 7.502560 1.175429 -63.755287 1.809499 1.478238 -64.569870 -0.000003 -0.000000 -0.000002 8.574346 2.179115 -75.148999 -0.208030 1.014738 -57.856791 -0.000001 0.000002 -0.000001 10.030082 13.637077 -84.750251 0.878815 0.065132 -64.595496 -0.000002 -0.000000 -0.000005 0.000001 0.000002 -0.000002 4.046392 15.322763 6.229103 12.299356 -7.930877 63.218114 15.936167 42.171627 -6.586652 0.097015 5.468640 3.943408 15.788510 -2.734485 -17.205882 -2.198352 -31.113550 7.361195 -0.000001 -0.000001 -0.000002 2.075173 -2.893284 7.852208 -2.120038 -2.465276 18.240830 0.000001 -0.000002 -0.000001 -2.071534 -5.547792 13.586796 0.297049 -5.079015 26.880708 0.000002 0.000000 -0.000001 -2.798433 -9.227086 13.172284 4.022029 -4.012422 34.056030 0.000001 -0.000002 -0.000005 -5.674520 -13.400904 22.869611 10.777674 -2.333348 36.041269 -0.000001 -0.000001 0.000001 -0.000001 0.000001 -0.000002 0.000000 0.000001 -0.000000 0.000000 0.000001 -0.000000 0.000000 0.000001 -0.000000 0.000000 0.000001 -0.000000 0.000000 0.000001 -0.000000 -0.000000 0.000001 -0.000000 -0.000000 0.000001 0.000000 -0.000000 0.000001 0.000000 0.000000 -0.000002 0.000000 -0.000000 0.000001 0.000000 
